<mxfile host="app.diagrams.net" agent="Mozilla/5.0 (Windows NT 10.0; Win64; x64) AppleWebKit/537.36 (KHTML, like Gecko) Chrome/138.0.0.0 Safari/537.36" version="27.0.4">
  <diagram name="Page-1" id="kc8g3wmOdn4SRjlP_Hmx">
    <mxGraphModel dx="786" dy="391" grid="1" gridSize="10" guides="1" tooltips="1" connect="1" arrows="1" fold="1" page="1" pageScale="1" pageWidth="1169" pageHeight="827" math="0" shadow="0">
      <root>
        <mxCell id="0" />
        <mxCell id="1" parent="0" />
        <mxCell id="uQbHU-tqNunF75M6g2QF-2" value="OD matrices (only distance for now)" style="shape=note;whiteSpace=wrap;html=1;backgroundOutline=1;darkOpacity=0.05;" vertex="1" parent="1">
          <mxGeometry x="190" y="100" width="80" height="100" as="geometry" />
        </mxCell>
        <mxCell id="uQbHU-tqNunF75M6g2QF-3" value="Travel snaps for each person" style="shape=note;whiteSpace=wrap;html=1;backgroundOutline=1;darkOpacity=0.05;" vertex="1" parent="1">
          <mxGeometry x="200" y="360" width="80" height="100" as="geometry" />
        </mxCell>
        <mxCell id="uQbHU-tqNunF75M6g2QF-4" value="Zonal characteristics" style="shape=note;whiteSpace=wrap;html=1;backgroundOutline=1;darkOpacity=0.05;" vertex="1" parent="1">
          <mxGeometry x="100" y="230" width="80" height="100" as="geometry" />
        </mxCell>
        <mxCell id="uQbHU-tqNunF75M6g2QF-29" style="edgeStyle=orthogonalEdgeStyle;rounded=0;orthogonalLoop=1;jettySize=auto;html=1;entryX=0;entryY=0.5;entryDx=0;entryDy=0;dashed=1;" edge="1" parent="1" source="uQbHU-tqNunF75M6g2QF-6" target="uQbHU-tqNunF75M6g2QF-25">
          <mxGeometry relative="1" as="geometry" />
        </mxCell>
        <mxCell id="uQbHU-tqNunF75M6g2QF-6" value="Location" style="rounded=1;whiteSpace=wrap;html=1;" vertex="1" parent="1">
          <mxGeometry x="240" y="480" width="100" height="20" as="geometry" />
        </mxCell>
        <mxCell id="uQbHU-tqNunF75M6g2QF-7" value="Time" style="rounded=1;whiteSpace=wrap;html=1;" vertex="1" parent="1">
          <mxGeometry x="240" y="460" width="100" height="20" as="geometry" />
        </mxCell>
        <mxCell id="uQbHU-tqNunF75M6g2QF-27" style="edgeStyle=orthogonalEdgeStyle;rounded=0;orthogonalLoop=1;jettySize=auto;html=1;entryX=0;entryY=0.75;entryDx=0;entryDy=0;dashed=1;" edge="1" parent="1" source="uQbHU-tqNunF75M6g2QF-10" target="uQbHU-tqNunF75M6g2QF-26">
          <mxGeometry relative="1" as="geometry" />
        </mxCell>
        <mxCell id="uQbHU-tqNunF75M6g2QF-10" value="Purpose" style="rounded=1;whiteSpace=wrap;html=1;" vertex="1" parent="1">
          <mxGeometry x="240" y="500" width="100" height="20" as="geometry" />
        </mxCell>
        <mxCell id="uQbHU-tqNunF75M6g2QF-28" style="edgeStyle=orthogonalEdgeStyle;rounded=0;orthogonalLoop=1;jettySize=auto;html=1;entryX=0;entryY=0.75;entryDx=0;entryDy=0;dashed=1;" edge="1" parent="1" source="uQbHU-tqNunF75M6g2QF-11" target="uQbHU-tqNunF75M6g2QF-26">
          <mxGeometry relative="1" as="geometry" />
        </mxCell>
        <mxCell id="uQbHU-tqNunF75M6g2QF-11" value="Mode" style="rounded=1;whiteSpace=wrap;html=1;" vertex="1" parent="1">
          <mxGeometry x="240" y="520" width="100" height="20" as="geometry" />
        </mxCell>
        <mxCell id="uQbHU-tqNunF75M6g2QF-12" value="List of purposes" style="shape=note;whiteSpace=wrap;html=1;backgroundOutline=1;darkOpacity=0.05;" vertex="1" parent="1">
          <mxGeometry x="190" y="230" width="80" height="100" as="geometry" />
        </mxCell>
        <mxCell id="uQbHU-tqNunF75M6g2QF-13" value="List of modes" style="shape=note;whiteSpace=wrap;html=1;backgroundOutline=1;darkOpacity=0.05;" vertex="1" parent="1">
          <mxGeometry x="280" y="230" width="80" height="100" as="geometry" />
        </mxCell>
        <mxCell id="uQbHU-tqNunF75M6g2QF-20" style="edgeStyle=orthogonalEdgeStyle;rounded=0;orthogonalLoop=1;jettySize=auto;html=1;entryX=0.5;entryY=0;entryDx=0;entryDy=0;" edge="1" parent="1" source="uQbHU-tqNunF75M6g2QF-15" target="uQbHU-tqNunF75M6g2QF-18">
          <mxGeometry relative="1" as="geometry" />
        </mxCell>
        <mxCell id="uQbHU-tqNunF75M6g2QF-15" value="Base for embeding" style="swimlane;horizontal=0;whiteSpace=wrap;html=1;" vertex="1" parent="1">
          <mxGeometry x="60" y="214" width="320" height="126" as="geometry" />
        </mxCell>
        <mxCell id="uQbHU-tqNunF75M6g2QF-39" style="edgeStyle=orthogonalEdgeStyle;rounded=0;orthogonalLoop=1;jettySize=auto;html=1;" edge="1" parent="1" source="uQbHU-tqNunF75M6g2QF-16" target="uQbHU-tqNunF75M6g2QF-22">
          <mxGeometry relative="1" as="geometry" />
        </mxCell>
        <mxCell id="uQbHU-tqNunF75M6g2QF-16" value="Encoded tensor" style="rounded=0;whiteSpace=wrap;html=1;" vertex="1" parent="1">
          <mxGeometry x="585" y="374" width="100" height="80" as="geometry" />
        </mxCell>
        <mxCell id="uQbHU-tqNunF75M6g2QF-21" style="edgeStyle=orthogonalEdgeStyle;rounded=0;orthogonalLoop=1;jettySize=auto;html=1;entryX=0;entryY=0.5;entryDx=0;entryDy=0;" edge="1" parent="1" source="uQbHU-tqNunF75M6g2QF-18" target="uQbHU-tqNunF75M6g2QF-16">
          <mxGeometry relative="1" as="geometry" />
        </mxCell>
        <mxCell id="uQbHU-tqNunF75M6g2QF-18" value="Embeder" style="rhombus;whiteSpace=wrap;html=1;" vertex="1" parent="1">
          <mxGeometry x="420" y="361" width="120" height="106" as="geometry" />
        </mxCell>
        <mxCell id="uQbHU-tqNunF75M6g2QF-19" style="edgeStyle=orthogonalEdgeStyle;rounded=0;orthogonalLoop=1;jettySize=auto;html=1;entryX=0.058;entryY=0.538;entryDx=0;entryDy=0;entryPerimeter=0;" edge="1" parent="1" source="uQbHU-tqNunF75M6g2QF-3" target="uQbHU-tqNunF75M6g2QF-18">
          <mxGeometry relative="1" as="geometry" />
        </mxCell>
        <mxCell id="uQbHU-tqNunF75M6g2QF-43" style="edgeStyle=orthogonalEdgeStyle;rounded=0;orthogonalLoop=1;jettySize=auto;html=1;entryX=0;entryY=0.5;entryDx=0;entryDy=0;" edge="1" parent="1" source="uQbHU-tqNunF75M6g2QF-22" target="uQbHU-tqNunF75M6g2QF-41">
          <mxGeometry relative="1" as="geometry" />
        </mxCell>
        <mxCell id="uQbHU-tqNunF75M6g2QF-22" value="Latent (VAE) &lt;br&gt;SDE with attention" style="rhombus;whiteSpace=wrap;html=1;" vertex="1" parent="1">
          <mxGeometry x="750" y="355" width="130" height="110" as="geometry" />
        </mxCell>
        <mxCell id="uQbHU-tqNunF75M6g2QF-23" value="State" style="rounded=1;whiteSpace=wrap;html=1;" vertex="1" parent="1">
          <mxGeometry x="610" y="454" width="100" height="20" as="geometry" />
        </mxCell>
        <mxCell id="uQbHU-tqNunF75M6g2QF-24" value="Memory" style="rounded=1;whiteSpace=wrap;html=1;" vertex="1" parent="1">
          <mxGeometry x="640" y="474" width="100" height="20" as="geometry" />
        </mxCell>
        <mxCell id="uQbHU-tqNunF75M6g2QF-25" value="Location" style="rounded=1;whiteSpace=wrap;html=1;" vertex="1" parent="1">
          <mxGeometry x="640" y="494" width="100" height="20" as="geometry" />
        </mxCell>
        <mxCell id="uQbHU-tqNunF75M6g2QF-26" value="Movement" style="rounded=1;whiteSpace=wrap;html=1;" vertex="1" parent="1">
          <mxGeometry x="640" y="514" width="100" height="20" as="geometry" />
        </mxCell>
        <mxCell id="uQbHU-tqNunF75M6g2QF-37" value="" style="curved=1;endArrow=classic;html=1;rounded=0;entryX=1;entryY=0.5;entryDx=0;entryDy=0;dashed=1;" edge="1" parent="1" target="uQbHU-tqNunF75M6g2QF-24">
          <mxGeometry width="50" height="50" relative="1" as="geometry">
            <mxPoint x="740" y="524" as="sourcePoint" />
            <mxPoint x="790" y="474" as="targetPoint" />
            <Array as="points">
              <mxPoint x="790" y="524" />
              <mxPoint x="740" y="474" />
            </Array>
          </mxGeometry>
        </mxCell>
        <mxCell id="uQbHU-tqNunF75M6g2QF-38" value="" style="curved=1;endArrow=classic;html=1;rounded=0;dashed=1;" edge="1" parent="1">
          <mxGeometry width="50" height="50" relative="1" as="geometry">
            <mxPoint x="740" y="500" as="sourcePoint" />
            <mxPoint x="740" y="480" as="targetPoint" />
            <Array as="points">
              <mxPoint x="790" y="500" />
              <mxPoint x="740" y="450" />
            </Array>
          </mxGeometry>
        </mxCell>
        <mxCell id="uQbHU-tqNunF75M6g2QF-44" style="edgeStyle=orthogonalEdgeStyle;rounded=0;orthogonalLoop=1;jettySize=auto;html=1;entryX=0.5;entryY=0;entryDx=0;entryDy=0;" edge="1" parent="1" source="uQbHU-tqNunF75M6g2QF-41" target="uQbHU-tqNunF75M6g2QF-22">
          <mxGeometry relative="1" as="geometry">
            <Array as="points">
              <mxPoint x="980" y="335" />
              <mxPoint x="815" y="335" />
            </Array>
          </mxGeometry>
        </mxCell>
        <mxCell id="uQbHU-tqNunF75M6g2QF-45" value="Retrain" style="edgeLabel;html=1;align=center;verticalAlign=middle;resizable=0;points=[];" vertex="1" connectable="0" parent="uQbHU-tqNunF75M6g2QF-44">
          <mxGeometry x="0.0341" relative="1" as="geometry">
            <mxPoint as="offset" />
          </mxGeometry>
        </mxCell>
        <mxCell id="uQbHU-tqNunF75M6g2QF-41" value="Results" style="rounded=0;whiteSpace=wrap;html=1;" vertex="1" parent="1">
          <mxGeometry x="930" y="374" width="120" height="60" as="geometry" />
        </mxCell>
        <mxCell id="uQbHU-tqNunF75M6g2QF-42" value="Location classification" style="rounded=1;whiteSpace=wrap;html=1;" vertex="1" parent="1">
          <mxGeometry x="990" y="454" width="150" height="20" as="geometry" />
        </mxCell>
        <mxCell id="uQbHU-tqNunF75M6g2QF-46" value="Location embedding" style="rounded=1;whiteSpace=wrap;html=1;" vertex="1" parent="1">
          <mxGeometry x="990" y="474" width="150" height="20" as="geometry" />
        </mxCell>
        <mxCell id="uQbHU-tqNunF75M6g2QF-47" value="Location distance" style="rounded=1;whiteSpace=wrap;html=1;" vertex="1" parent="1">
          <mxGeometry x="990" y="494" width="150" height="20" as="geometry" />
        </mxCell>
        <mxCell id="uQbHU-tqNunF75M6g2QF-48" value="Purpose classification" style="rounded=1;whiteSpace=wrap;html=1;" vertex="1" parent="1">
          <mxGeometry x="990" y="514" width="150" height="20" as="geometry" />
        </mxCell>
        <mxCell id="uQbHU-tqNunF75M6g2QF-49" value="Mode classification" style="rounded=1;whiteSpace=wrap;html=1;" vertex="1" parent="1">
          <mxGeometry x="990" y="534" width="150" height="20" as="geometry" />
        </mxCell>
        <mxCell id="uQbHU-tqNunF75M6g2QF-50" value="KL divergence" style="rounded=1;whiteSpace=wrap;html=1;" vertex="1" parent="1">
          <mxGeometry x="990" y="554" width="150" height="20" as="geometry" />
        </mxCell>
        <mxCell id="uQbHU-tqNunF75M6g2QF-51" value="Losses" style="rounded=1;whiteSpace=wrap;html=1;" vertex="1" parent="1">
          <mxGeometry x="970" y="434" width="100" height="20" as="geometry" />
        </mxCell>
        <mxCell id="uQbHU-tqNunF75M6g2QF-52" value="Inputs" style="swimlane;whiteSpace=wrap;html=1;" vertex="1" parent="1">
          <mxGeometry x="30" y="60" width="370" height="510" as="geometry" />
        </mxCell>
      </root>
    </mxGraphModel>
  </diagram>
</mxfile>
